<svg width="254" height="254" viewBox="0 0 254 254" fill="none" xmlns="http://www.w3.org/2000/svg">
<path d="M252.564 74.7201C251.955 61.2602 249.808 52.0631 246.692 44.0209C243.519 35.5853 238.54 27.9364 232.11 21.6252C225.799 15.1959 218.15 10.2138 209.715 7.03285C201.672 3.91656 192.484 1.78096 179.015 1.15995C165.536 0.550178 161.22 0.398438 126.879 0.398438C92.5377 0.398438 88.2216 0.547368 74.742 1.15995C61.2624 1.78096 52.0737 3.91656 44.0315 7.04409C35.5846 10.2138 27.9442 15.1959 21.6246 21.6252C15.1953 27.9449 10.2131 35.5853 7.04347 44.0321C3.92718 52.0743 1.79158 61.2715 1.17057 74.7314C0.54675 88.2222 0.40625 92.5271 0.40625 126.868C0.40625 161.218 0.54675 165.522 1.16776 179.005C1.77753 192.465 3.91313 201.662 7.04066 209.704C10.2131 218.14 15.1925 225.789 21.6218 232.1C27.933 238.529 35.5818 243.511 44.0175 246.681C52.0597 249.808 61.2484 251.944 74.7167 252.554C88.1963 253.164 92.5124 253.315 126.853 253.315C161.194 253.315 165.508 253.175 178.99 252.554C192.45 251.944 201.647 249.808 209.689 246.681C226.679 240.108 240.105 226.682 246.666 209.704C249.794 201.662 251.929 192.465 252.539 179.005C253.154 165.511 253.306 161.206 253.306 126.868C253.306 92.5299 253.174 88.2137 252.564 74.7201ZM229.798 177.968C229.23 190.304 227.17 196.997 225.451 201.454C221.199 212.483 212.483 221.2 201.453 225.451C196.997 227.185 190.303 229.245 177.967 229.798C164.64 230.408 160.638 230.54 126.867 230.54C93.0969 230.54 89.0955 230.408 75.7676 229.798C63.443 229.231 56.7383 227.171 52.2817 225.451C46.7881 223.425 41.82 220.188 37.7427 215.993C33.5361 211.918 30.3103 206.947 28.2843 201.454C26.5505 196.997 24.4908 190.304 23.9372 177.968C23.3246 164.629 23.1953 160.641 23.1953 126.868C23.1953 93.0947 23.3162 89.0961 23.9259 75.7683C24.4936 63.4324 26.5533 56.7389 28.2843 52.2823C30.3103 46.7887 33.5474 41.8206 37.7427 37.7433C41.8172 33.5368 46.7881 30.3109 52.2817 28.2849C56.7383 26.5511 63.4317 24.4914 75.7676 23.9266C89.0955 23.328 93.0969 23.196 126.867 23.196C160.63 23.196 164.628 23.328 177.967 23.9378C190.303 24.5054 196.997 26.5652 201.453 28.2849C206.947 30.3109 211.915 33.548 215.992 37.7433C220.199 41.8178 223.425 46.7887 225.451 52.2823C227.184 56.7389 229.244 63.4324 229.809 75.7683C230.419 89.1073 230.551 93.0975 230.551 126.868C230.551 160.639 230.41 164.629 229.798 177.968Z" fill="#878787"/>
<path d="M126.856 61.9258C90.9891 61.9258 61.9141 91.0009 61.9141 126.868C61.9141 162.735 90.9891 191.81 126.856 191.81C162.723 191.81 191.798 162.735 191.798 126.868C191.798 91.0009 162.723 61.9258 126.856 61.9258ZM126.856 169.02C103.578 169.02 84.7032 150.146 84.7032 126.868C84.7032 103.59 103.578 84.7149 126.856 84.7149C150.134 84.7149 169.009 103.59 169.009 126.868C169.009 150.146 150.145 169.02 126.856 169.02Z" fill="#878787"/>
<path d="M209.541 59.3548C209.541 67.7342 202.74 74.526 194.369 74.526C185.99 74.526 179.198 67.7258 179.198 59.3548C179.198 50.9754 185.998 44.1836 194.369 44.1836C202.74 44.1836 209.541 50.9838 209.541 59.3548Z" fill="#878787"/>
</svg>
