<svg width="256" height="256" viewBox="0 0 256 256" fill="none" xmlns="http://www.w3.org/2000/svg">
<path opacity="0.4" d="M128 256C198.692 256 256 198.692 256 128C256 57.3075 198.692 0 128 0C57.3076 0 0 57.3075 0 128C0 198.692 57.3076 256 128 256Z" fill="#878787"/>
<path d="M71.8857 77.9423C82.18 77.9423 90.5253 69.597 90.5253 59.3027C90.5253 49.0083 82.18 40.6631 71.8857 40.6631C61.5913 40.6631 53.2461 49.0083 53.2461 59.3027C53.2461 69.597 61.5913 77.9423 71.8857 77.9423Z" fill="white"/>
<path d="M180.977 194.659C180.977 186.162 181.011 183.595 180.982 177.995C180.926 168.525 181.164 159.118 180.948 149.647C180.731 140.172 181.432 126.572 172.153 120.59C169.973 119.183 164.658 118.512 162.079 118.512C142.207 118.512 139.866 144.315 139.866 144.34V194.659H110.124V92.6876H139.866V104.576C148.363 98.0156 157.235 89.1016 174.273 89.1016C183.369 89.1016 193.856 92.2839 199.982 99.1203C206.39 106.275 210.205 115.495 211.395 124.902C212.372 132.716 212.593 140.614 212.618 148.47C212.665 162.734 212.882 176.857 212.933 191.12C212.933 192.352 213.077 190.41 213.086 194.659H180.977Z" fill="white"/>
<path d="M88.8802 92.6855H54.8896V194.657H88.8802V92.6855Z" fill="white"/>
</svg>
