<?xml version="1.0" encoding="utf-8"?>
<!-- Generator: Adobe Illustrator 25.0.1, SVG Export Plug-In . SVG Version: 6.00 Build 0)  -->
<svg version="1.0" id="katman_1" xmlns="http://www.w3.org/2000/svg" xmlns:xlink="http://www.w3.org/1999/xlink" x="0px" y="0px"
	 viewBox="0 0 1973.3 1442.7" style="enable-background:new 0 0 1973.3 1442.7;" xml:space="preserve">
<style type="text/css">
	.st0{fill:#BDBCBC;}
</style>
<g id="surface1">
	<path class="st0" d="M1355.4,237.1H617.7c-63.6,0-115.3,51.7-115.3,115.3v737.7c0,63.6,51.7,115.3,115.3,115.3h737.7
		c63.6,0,115.3-51.7,115.3-115.3V352.3C1470.7,288.8,1419,237.1,1355.4,237.1 M1263.4,659.5c-5.3,0.5-10.6,0.8-15.9,0.8
		c-58.3,0-112.6-29.4-144.5-78.1v266c0,108.6-88,196.6-196.6,196.6c-108.6,0-196.6-88-196.6-196.6s88-196.6,196.6-196.6
		c4.1,0,8.1,0.4,12.2,0.6v96.9c-4-0.5-8-1.2-12.2-1.2c-55.4,0-100.3,44.9-100.3,100.3c0,55.4,44.9,100.3,100.3,100.3
		c55.4,0,104.4-43.7,104.4-99.1l1-451.7h92.7c8.7,83.1,75.8,148,159.1,154.1L1263.4,659.5"/>
</g>
</svg>
