<svg width="256" height="256" viewBox="0 0 256 256" fill="none" xmlns="http://www.w3.org/2000/svg">
<path d="M240.16 64.1953C225.55 64.1953 212.07 59.3553 201.245 51.1903C188.83 41.8303 179.91 28.1003 176.76 12.2753C175.98 8.36531 175.56 4.33031 175.52 0.195312H133.785V114.235L133.735 176.7C133.735 193.4 122.86 207.56 107.785 212.54C103.41 213.985 98.6846 214.67 93.7646 214.4C87.4846 214.055 81.5996 212.16 76.4846 209.1C65.5996 202.59 58.2196 190.78 58.0196 177.27C57.7046 156.155 74.7746 138.94 95.8746 138.94C100.04 138.94 104.04 139.62 107.785 140.855V109.685V98.4803C103.835 97.8953 99.8146 97.5903 95.7496 97.5903C72.6546 97.5903 51.0546 107.19 35.6146 124.485C23.9446 137.555 16.9446 154.23 15.8646 171.715C14.4496 194.685 22.8546 216.52 39.1546 232.63C41.5496 234.995 44.0646 237.19 46.6946 239.215C60.6696 249.97 77.7546 255.8 95.7496 255.8C99.8146 255.8 103.835 255.5 107.785 254.915C124.595 252.425 140.105 244.73 152.345 232.63C167.385 217.765 175.695 198.03 175.785 177.025L175.57 83.7453C182.745 89.2803 190.59 93.8603 199.01 97.4153C212.105 102.94 225.99 105.74 240.28 105.735V75.4303V64.1853C240.29 64.1953 240.17 64.1953 240.16 64.1953Z" fill="#878787"/>
</svg>
