<svg width="256" height="256" viewBox="0 0 256 256" fill="none" xmlns="http://www.w3.org/2000/svg">
<path d="M29.8532 61.9721C46.3407 61.9721 59.7064 48.0991 59.7064 30.986C59.7064 13.8729 46.3407 0 29.8532 0C13.3657 0 0 13.8729 0 30.986C0 48.0991 13.3657 61.9721 29.8532 61.9721Z" fill="#878787"/>
<path d="M204.575 255.999C204.575 241.873 204.629 237.607 204.581 228.298C204.493 212.554 204.874 196.916 204.527 181.172C204.18 165.421 205.303 142.812 190.441 132.867C186.95 130.53 178.437 129.414 174.306 129.414C142.48 129.414 138.73 172.308 138.73 172.35V255.999H91.0957V86.4838H138.73V106.246C152.34 95.3409 166.549 80.5225 193.836 80.5225C208.406 80.5225 225.2 85.8128 235.013 97.1774C245.275 109.072 251.386 124.399 253.291 140.037C254.856 153.026 255.21 166.156 255.251 179.216C255.326 202.927 255.673 226.405 255.754 250.116C255.754 252.164 255.986 248.936 255.999 255.999H204.575Z" fill="#878787"/>
<path d="M57.0712 86.4814H2.63184V255.997H57.0712V86.4814Z" fill="#878787"/>
</svg>
