<svg width="81" height="99" viewBox="0 0 81 99" fill="none" xmlns="http://www.w3.org/2000/svg">
<path d="M35.867 95.3612L23 89" stroke="black" stroke-width="5.28639" stroke-linecap="round"/>
<rect x="5.18652" y="20.5327" width="57" height="18" transform="rotate(-15 5.18652 20.5327)" fill="#FF8E0F"/>
<rect x="9.8457" y="37.9194" width="57" height="18" transform="rotate(-15 9.8457 37.9194)" fill="black"/>
<path d="M49.1912 27.8943C51.076 34.9283 48.1768 41.2106 42.4954 42.733C36.7277 44.2784 29.9587 39.9599 28.1012 33.0277C26.2788 26.2262 30.0847 19.9694 35.9731 18.3916C41.6545 16.8693 47.3065 20.8604 49.1912 27.8943Z" stroke="#2660AE" stroke-width="2.8"/>
<circle cx="37.5039" cy="31.026" r="12.6" transform="rotate(-15 37.5039 31.026)" stroke="#701910" stroke-width="3.8"/>
<circle cx="54.7444" cy="39.3471" r="2" transform="rotate(-15 54.7444 39.3471)" fill="#FF8E0F"/>
<circle cx="20.9692" cy="21.48" r="3" transform="rotate(-15 20.9692 21.48)" fill="black"/>
<path d="M3 15.7031L22.6615 89.0809" stroke="#701910" stroke-width="5.28639" stroke-linecap="round"/>
</svg>
